<?xml version="1.0" encoding="utf-8"?>
<!-- Generator: Adobe Illustrator 28.2.0, SVG Export Plug-In . SVG Version: 6.00 Build 0)  -->
<svg version="1.1" id="Layer_1" xmlns="http://www.w3.org/2000/svg" xmlns:xlink="http://www.w3.org/1999/xlink" x="0px" y="0px"
	 viewBox="0 0 479.67 352.58" style="enable-background:new 0 0 479.67 352.58;" xml:space="preserve">
<style type="text/css">
	.st0{fill:#231F20;}
	.st1{fill:#FF8700;}
	.st2{fill:#A7A8A9;}
</style>
<g>
	<path class="st0" d="M411.11,94.26h35.1c5.85,0,11.06,1.07,15.64,3.21c4.58,2.14,8.34,4.99,11.27,8.55
		c2.93,3.56,4.9,7.71,5.9,12.44c1,4.73,0.84,9.69-0.47,14.88c-1.3,5.12-3.63,10.04-6.99,14.78c-3.37,4.74-7.42,8.9-12.17,12.49
		c-4.75,3.6-9.96,5.37-15.62,7.51c-5.67,2.14-11.47,3.21-17.39,3.21h-33.03L411.11,94.26z M420.04,155.23h5.13
		c3.87,0,7.47-0.55,10.79-1.66c3.32-1.11,6.26-2.63,8.85-4.56c2.58-1.93,4.76-4.23,6.53-6.89c1.77-2.66,3.07-5.58,3.87-8.76
		c0.79-3.11,0.96-6.01,0.5-8.71c-0.45-2.7-1.48-5.01-3.08-6.95c-1.6-1.93-3.78-3.46-6.53-4.56c-2.76-1.11-6.03-1.66-9.83-1.66h-5.13
		L420.04,155.23z"/>
	<path class="st0" d="M296.57,171.34l18.14-77.23c0,0,14.48,0,25.33,0c18.62,25.06,24.71,47.85,24.71,47.85l11.31-47.85h21.69
		l-18.63,77.23h-25.62c0,0-9.27-33.86-24.02-51.39c-3.8,12.26-12.33,51.34-12.33,51.34L296.57,171.34z"/>
	<path class="st0" d="M206.96,132.05c1.35-5.53,3.68-10.68,7.01-15.45c3.32-4.77,7.33-8.94,12.02-12.49
		c4.69-3.55,9.95-6.33,15.76-8.34c5.81-2.01,11.92-3.01,18.32-3.01c6.33,0,11.93,1,16.8,3.01c4.87,2.01,8.8,4.79,11.79,8.34
		c2.99,3.55,4.99,7.72,5.98,12.49c0.99,4.77,0.81,9.92-0.54,15.45c-1.35,5.53-3.68,10.68-7.01,15.45
		c-3.32,4.77-7.35,8.93-12.07,12.49c-4.73,3.55-10.02,6.34-15.86,8.34c-5.85,2.01-11.94,3.01-18.27,3.01c-6.4,0-12.02-1-16.85-3.01
		c-4.83-2.01-8.73-4.79-11.69-8.34c-2.96-3.55-4.94-7.72-5.93-12.49C205.43,142.73,205.61,137.58,206.96,132.05z M228.35,132.05
		c-0.72,2.96-0.8,5.69-0.23,8.19c0.57,2.5,1.64,4.67,3.21,6.52c1.57,1.84,3.57,3.28,5.99,4.29c2.43,1.02,5.14,1.53,8.13,1.53
		c2.99,0,5.95-0.51,8.88-1.53c2.93-1.02,5.64-2.45,8.14-4.29c2.5-1.84,4.65-4.01,6.44-6.52c1.79-2.5,3.05-5.23,3.77-8.19
		c0.72-2.96,0.8-5.69,0.23-8.19c-0.57-2.5-1.66-4.67-3.26-6.52c-1.6-1.84-3.62-3.27-6.05-4.29c-2.43-1.02-5.14-1.53-8.13-1.53
		c-2.99,0-5.95,0.51-8.88,1.53c-2.93,1.02-5.62,2.45-8.09,4.29c-2.47,1.84-4.6,4.02-6.39,6.52
		C230.33,126.36,229.07,129.09,228.35,132.05z"/>
	<path class="st0" d="M132.09,112.04h-25.82l-3.22,12.71h30.59l-4.25,16.75l-30.08-0.51l-3.08,12.87l36.87,0.76l-4.25,16.75H72.85
		L90.3,95.3h46.04L132.09,112.04z"/>
	<path class="st0" d="M73,112.46c0,4.65-1.28,8.5-3.83,11.52c-2.55,3.03-6.44,5.31-11.68,6.85l-0.1,0.41
		c4.14,1.2,7.28,2.93,9.42,5.18c2.14,2.26,3.21,5.44,3.21,9.55c0,8.04-3.29,14.32-9.88,18.84c-6.59,4.52-15.91,6.78-27.95,6.78
		L0,171.51l17.45-76.35H44.6c9.21,0,16.24,1.51,21.11,4.54C70.57,102.73,73,106.98,73,112.46z M49.95,146.49
		c0-2.81-1.06-4.83-3.18-6.08c-2.12-1.25-5.45-1.87-10-1.87H26.46l-4.39,19.04h9.94c5.74,0,10.17-0.94,13.27-2.82
		C48.39,152.88,49.95,150.12,49.95,146.49z M52.16,115.59c0-2.26-0.89-3.89-2.67-4.9c-1.78-1.01-4.24-1.51-7.39-1.51h-8.87
		l-3.73,16.17h8.97c4.3,0,7.66-0.83,10.07-2.49C50.95,121.19,52.16,118.77,52.16,115.59z"/>
	<path class="st0" d="M156.12,135.51L141.07,95l23.39-0.12l15.44,40.63c0,0-10.87,15.19-10.77,35.86c-9.81,0-17.7,0-23.71,0
		C148.22,151.97,156.12,135.51,156.12,135.51z"/>
	<path class="st1" d="M184.2,132.81c0.42,0.17-2.8-8.25-6.75-19.04c-0.59-17.38,24.11-18.28,34.16-26.52
		C206.72,108.62,205.5,119,184.2,132.81z"/>
	<path class="st0" d="M20.16,83.03c30.17-29.12,83.97-48.52,145.34-48.52c61.37,0,115.17,19.4,145.34,48.52h24.12
		c-31.65-32.52-90.27-54.38-157.41-54.38c-67.14,0-125.75,21.86-157.4,54.38H20.16z"/>
	<path class="st2" d="M20.15,83.03c31.65-32.52,90.26-54.38,157.39-54.38c67.14,0,125.76,21.86,157.41,54.38h142.48
		C442.48,34.5,353.28,0,248.76,0C144.23,0,55.04,34.5,20.09,83.03H20.15z"/>
	<path class="st0" d="M460.82,181.48C430.65,210.6,376.85,230,315.48,230c-61.37,0-115.17-19.4-145.34-48.52h-24.12
		c31.65,32.52,90.27,54.38,157.41,54.38c67.14,0,125.75-21.86,157.4-54.38H460.82z"/>
	<path class="st2" d="M460.83,181.48c-31.65,32.52-90.26,54.38-157.39,54.38c-67.14,0-125.76-21.86-157.41-54.38H3.55
		c34.95,48.53,124.15,83.03,228.68,83.03c104.53,0,193.71-34.5,228.67-83.03H460.83z"/>
	<g>
		<path class="st0" d="M158.77,352.58h-8.09c-4.02,0-7.12-1.07-9.31-3.2c-2.19-2.14-3.28-5.21-3.28-9.23v-24.18
			c0-4.02,1.09-7.09,3.28-9.23c2.19-2.14,5.29-3.2,9.31-3.2h8.09c3.97,0,7.04,1.08,9.23,3.24c2.19,2.16,3.28,5.23,3.28,9.19v2.29
			c0,1.12-0.53,1.68-1.6,1.68h-6.48c-1.07,0-1.6-0.56-1.6-1.68v-1.83c0-1.63-0.33-2.78-0.99-3.47c-0.66-0.69-1.81-1.03-3.43-1.03
			h-4.96c-1.58,0-2.71,0.34-3.39,1.03c-0.69,0.69-1.03,1.84-1.03,3.47v23.27c0,1.63,0.34,2.78,1.03,3.47
			c0.69,0.69,1.82,1.03,3.39,1.03h4.96c1.63,0,2.77-0.34,3.43-1.03c0.66-0.69,0.99-1.84,0.99-3.47v-4.81c0-0.56-0.28-0.84-0.84-0.84
			h-4.58c-1.07,0-1.6-0.53-1.6-1.6v-5.19c0-1.07,0.53-1.6,1.6-1.6h13.35c1.17,0,1.76,0.58,1.76,1.75v12.74
			c0,3.97-1.1,7.03-3.28,9.19C165.81,351.5,162.73,352.58,158.77,352.58z"/>
		<path class="st0" d="M185.43,352.58h-6.48c-1.07,0-1.6-0.53-1.6-1.6v-45.85c0-1.07,0.53-1.6,1.6-1.6h18.16
			c3.97,0,7.07,1.09,9.31,3.28c2.24,2.19,3.36,5.26,3.36,9.23v5.95c0,5.75-2.26,9.56-6.79,11.44v0.3l8.16,17.01
			c0.46,1.22,0.02,1.83-1.3,1.83h-6.18c-0.92,0-1.58-0.1-1.98-0.31c-0.41-0.2-0.74-0.63-0.99-1.3l-7.63-16.48h-5.11
			c-0.61,0-0.92,0.28-0.92,0.84v15.64C187.03,352.04,186.5,352.58,185.43,352.58z M187.87,326.72h7.48c1.63,0,2.82-0.34,3.59-1.03
			c0.76-0.69,1.14-1.79,1.14-3.32v-5.95c0-1.58-0.38-2.72-1.14-3.43c-0.76-0.71-1.96-1.07-3.59-1.07h-7.48
			c-0.56,0-0.84,0.28-0.84,0.84v13.12C187.03,326.44,187.31,326.72,187.87,326.72z"/>
		<path class="st0" d="M236.58,352.58h-8.54c-4.02,0-7.12-1.07-9.31-3.2c-2.19-2.14-3.28-5.21-3.28-9.23v-24.18
			c0-4.02,1.09-7.09,3.28-9.23c2.19-2.14,5.29-3.2,9.31-3.2h8.54c4.02,0,7.12,1.07,9.31,3.2c2.19,2.14,3.28,5.21,3.28,9.23v24.18
			c0,4.02-1.1,7.09-3.28,9.23C243.7,351.51,240.6,352.58,236.58,352.58z M229.57,344.19h5.42c1.63,0,2.78-0.34,3.47-1.03
			c0.69-0.69,1.03-1.84,1.03-3.47v-23.27c0-1.63-0.35-2.78-1.03-3.47c-0.69-0.69-1.85-1.03-3.47-1.03h-5.42
			c-1.63,0-2.77,0.34-3.43,1.03c-0.66,0.69-0.99,1.84-0.99,3.47v23.27c0,1.63,0.33,2.78,0.99,3.47
			C226.8,343.84,227.94,344.19,229.57,344.19z"/>
		<path class="st0" d="M280.52,303.53h6.41c1.12,0,1.68,0.51,1.68,1.53v35.09c0,3.97-1.11,7.03-3.32,9.19
			c-2.21,2.16-5.3,3.24-9.27,3.24h-8.39c-4.02,0-7.12-1.07-9.31-3.2c-2.19-2.14-3.28-5.21-3.28-9.23v-35.01c0-1.07,0.53-1.6,1.6-1.6
			h6.48c1.07,0,1.6,0.53,1.6,1.6v34.56c0,1.63,0.35,2.78,1.03,3.47c0.69,0.69,1.82,1.03,3.39,1.03h5.26c1.63,0,2.78-0.34,3.47-1.03
			c0.69-0.69,1.03-1.84,1.03-3.47v-34.56C278.92,304.06,279.45,303.53,280.52,303.53z"/>
		<path class="st0" d="M303.16,352.58h-6.48c-1.07,0-1.6-0.53-1.6-1.6v-45.85c0-1.07,0.53-1.6,1.6-1.6h18.61
			c3.97,0,7.04,1.08,9.23,3.24c2.19,2.16,3.28,5.23,3.28,9.19v7.32c0,3.97-1.09,7.03-3.28,9.19c-2.19,2.16-5.26,3.24-9.23,3.24
			h-9.61c-0.61,0-0.92,0.28-0.92,0.84v14.42C304.76,352.04,304.22,352.58,303.16,352.58z M305.6,327.25h8.09
			c1.63,0,2.77-0.34,3.43-1.03c0.66-0.69,0.99-1.82,0.99-3.39v-6.41c0-1.63-0.33-2.78-0.99-3.47c-0.66-0.69-1.81-1.03-3.43-1.03
			h-8.09c-0.56,0-0.84,0.28-0.84,0.84v13.66C304.76,326.97,305.04,327.25,305.6,327.25z"/>
	</g>
</g>
</svg>
